<svg xmlns="http://www.w3.org/2000/svg" width="94.591" height="14.598" viewBox="0 0 94.591 14.598"><g transform="translate(-176.332 394.495)"><g transform="translate(189.672 -387.388)"><path d="M0,0A4.119,4.119,0,0,0,1.178-2.868,4.345,4.345,0,0,0-3.257-7.106H-8.413a4.345,4.345,0,0,0-4.434,4.238A4.12,4.12,0,0,0-11.67,0a4.075,4.075,0,0,0-1.67,3.233A4.5,4.5,0,0,0-8.631,7.472V6.465a3.5,3.5,0,0,1-3.7-3.231A3.331,3.331,0,0,1-9.677.134a3.245,3.245,0,0,1-2.164-3A3.338,3.338,0,0,1-8.413-6.1h5.157A3.338,3.338,0,0,1,.172-2.868a3.245,3.245,0,0,1-2.164,3,3.331,3.331,0,0,1,2.656,3.1,3.5,3.5,0,0,1-3.7,3.231H-6.017v-12.2h-2.4a2.974,2.974,0,0,0-3.064,2.868A2.975,2.975,0,0,0-8.413,0V-1.006A1.969,1.969,0,0,1-10.47-2.868,1.969,1.969,0,0,1-8.413-4.729h1.39v12.2h3.985A4.5,4.5,0,0,0,1.67,3.233,4.075,4.075,0,0,0,0,0" fill="#fff"/></g><g transform="translate(200.548 -387.987)"><path d="M0,0A.717.717,0,0,1-.554.354L-2.418.428V-2.435l1.7.053a.819.819,0,0,1,.7.3A1.978,1.978,0,0,1,.188-1.025,2.175,2.175,0,0,1,0,0M-.242,4.327H-2.418V1.24H-.359A.928.928,0,0,1,.4,1.612,1.883,1.883,0,0,1,.715,2.8,2.137,2.137,0,0,1,.453,3.973a.782.782,0,0,1-.7.354M1.074.654A1.831,1.831,0,0,0,1.4.126a3.081,3.081,0,0,0,.183-1.151,3.175,3.175,0,0,0-.164-1.1,1.708,1.708,0,0,0-.479-.712A1.764,1.764,0,0,0,.2-3.2a3.864,3.864,0,0,0-.91-.1H-3.844V5.236h3.6A3.522,3.522,0,0,0,.69,5.118,1.946,1.946,0,0,0,1.464,4.7a1.953,1.953,0,0,0,.517-.767A3.158,3.158,0,0,0,2.164,2.8a2.618,2.618,0,0,0-.371-1.5A2.013,2.013,0,0,0,1.074.654" fill="#fff"/></g><g transform="translate(207.417 -386.682)"><path d="M0,0A2.286,2.286,0,0,1,.491-1.148a1.414,1.414,0,0,1,1.131-.46,1.53,1.53,0,0,1,.677.14,1.538,1.538,0,0,1,.488.372,1.555,1.555,0,0,1,.3.542,2.145,2.145,0,0,1,.1.476l-.568.011L1.542-.044Q.983-.032.485-.014L0,0M3.862-1.587a2.532,2.532,0,0,0-.888-.644,3.273,3.273,0,0,0-1.352-.25A3.664,3.664,0,0,0,.149-2.22,2.477,2.477,0,0,0-.81-1.5a2.7,2.7,0,0,0-.5,1.06A5.4,5.4,0,0,0-1.452.8a5.4,5.4,0,0,0,.139,1.243,2.749,2.749,0,0,0,.5,1.06,2.439,2.439,0,0,0,.954.722,3.7,3.7,0,0,0,1.485.261,5.963,5.963,0,0,0,1.033-.079,4.754,4.754,0,0,0,.729-.178,3.038,3.038,0,0,0,.572-.275l.108-.068-.2-.831-.2.092a5.137,5.137,0,0,1-.624.238,5.418,5.418,0,0,1-.658.158,4.306,4.306,0,0,1-.764.067A1.39,1.39,0,0,1,.37,2.6,3.225,3.225,0,0,1-.062.806H4.485V.1a2.792,2.792,0,0,0-.143-.84,2.461,2.461,0,0,0-.48-.847" fill="#fff"/></g><g transform="translate(216.533 -386.682)"><path d="M0,0A2.278,2.278,0,0,1,.491-1.148a1.412,1.412,0,0,1,1.13-.46,1.534,1.534,0,0,1,.678.14,1.538,1.538,0,0,1,.487.372,1.538,1.538,0,0,1,.3.542,2.087,2.087,0,0,1,.1.476l-.567.011L1.542-.044Q.984-.032.485-.014L0,0M3.862-1.587a2.53,2.53,0,0,0-.888-.644,3.274,3.274,0,0,0-1.352-.25A3.664,3.664,0,0,0,.149-2.22,2.485,2.485,0,0,0-.81-1.5a2.7,2.7,0,0,0-.5,1.06A5.381,5.381,0,0,0-1.452.8a5.382,5.382,0,0,0,.139,1.243,2.733,2.733,0,0,0,.5,1.06,2.43,2.43,0,0,0,.954.722,3.7,3.7,0,0,0,1.484.261,5.973,5.973,0,0,0,1.034-.079,4.759,4.759,0,0,0,.728-.178,3.07,3.07,0,0,0,.572-.275l.108-.068-.2-.831-.2.092a5.055,5.055,0,0,1-.624.238,5.366,5.366,0,0,1-.657.158,4.324,4.324,0,0,1-.765.067A1.389,1.389,0,0,1,.371,2.6,3.222,3.222,0,0,1-.062.806H4.485V.1a2.813,2.813,0,0,0-.143-.84,2.451,2.451,0,0,0-.481-.847" fill="#fff"/></g><g transform="translate(231.967 -383.613)"><path d="M0,0A1.722,1.722,0,0,1-.726.135a1.8,1.8,0,0,1-.783-.146,1.035,1.035,0,0,1-.446-.411,2,2,0,0,1-.235-.726,7.493,7.493,0,0,1-.068-1.081,5.689,5.689,0,0,1,.106-1.192,2.12,2.12,0,0,1,.3-.75,1.093,1.093,0,0,1,.464-.389,1.639,1.639,0,0,1,.661-.126,1.8,1.8,0,0,1,1.082.275,1.247,1.247,0,0,1,.4.945c.008.287.012.56.012.815v.656c0,.225,0,.393.012.492A2.449,2.449,0,0,1,.7-.869a1.463,1.463,0,0,1-.25.518A1.2,1.2,0,0,1,0,0M2.343.185a5.627,5.627,0,0,1-.119-.817q-.041-.493-.058-1.1T2.149-2.978V-8.292H.758v3.207A1.812,1.812,0,0,0,.44-5.314,2.357,2.357,0,0,0-.726-5.561a4.905,4.905,0,0,0-1.223.141,2.122,2.122,0,0,0-.965.531,2.444,2.444,0,0,0-.6,1.042,5.51,5.51,0,0,0-.2,1.619A6.018,6.018,0,0,0-3.572-.815,2.394,2.394,0,0,0-3.065.21,2.142,2.142,0,0,0-2.12.818a4.41,4.41,0,0,0,1.393.191A2.248,2.248,0,0,0,.438.7,1.633,1.633,0,0,0,.992.145,1.571,1.571,0,0,0,1.35.828L1.4.88H2.814L2.506.574A.822.822,0,0,1,2.343.185" fill="#fff"/></g><g transform="translate(241.34 -383.789)"><path d="M0,0A1.51,1.51,0,0,1-.461.235,1.735,1.735,0,0,1-1.6.214a.9.9,0,0,1-.354-.279A1.114,1.114,0,0,1-2.148-.49a2.509,2.509,0,0,1-.06-.557,1.139,1.139,0,0,1,.1-.506.806.806,0,0,1,.259-.308,1.087,1.087,0,0,1,.394-.171,2.215,2.215,0,0,1,.5-.055H.452L.411-.8A.93.93,0,0,1,.3-.352,1.088,1.088,0,0,1,0,0M1.81.33a5.78,5.78,0,0,1-.039-.813c0-.314.019-.672.046-1.062s.042-.816.042-1.248A3.394,3.394,0,0,0,1.71-3.82a2.03,2.03,0,0,0-.5-.834,2.327,2.327,0,0,0-.89-.535A3.924,3.924,0,0,0-.957-5.375a3.6,3.6,0,0,0-.672.055,5.025,5.025,0,0,0-.5.117,3.445,3.445,0,0,0-.42.161l-.142.067.216.69L-2.3-4.33c.084-.024.2-.05.327-.08s.255-.043.424-.062A2.294,2.294,0,0,1-.34-4.363a1.417,1.417,0,0,1,.44.368,1.556,1.556,0,0,1,.273.542,2.353,2.353,0,0,1,.09.545l-.09-.006L-.5-2.961c-.164-.007-.317-.011-.46-.011a3.52,3.52,0,0,0-2.025.46A1.676,1.676,0,0,0-3.67-1.047a2.808,2.808,0,0,0,.12.807A1.8,1.8,0,0,0-3.114.5a2.156,2.156,0,0,0,.823.513A3.714,3.714,0,0,0-1.016,1.2,1.951,1.951,0,0,0,.543.562a1.176,1.176,0,0,0,.271.452l.053.052H2.29L1.982.76A.73.73,0,0,1,1.81.33" fill="#fff"/></g><g transform="translate(251.62 -388.517)"><path d="M0,0A1.976,1.976,0,0,0-.927-.535a4.73,4.73,0,0,0-1.207-.14,1.744,1.744,0,0,0-1,.266,1.856,1.856,0,0,0-.246.2V-.582H-4.77V5.765h1.39V1.453a1.351,1.351,0,0,1,.4-.971A1.3,1.3,0,0,1-2.134.2,1.508,1.508,0,0,1-1.49.324a.98.98,0,0,1,.417.383,2.191,2.191,0,0,1,.264.753,6.735,6.735,0,0,1,.091,1.2V5.765H.742V2.656A5.974,5.974,0,0,0,.558,1.042,2.443,2.443,0,0,0,0,0" fill="#fff"/></g><g transform="translate(259.237 -383.613)"><path d="M0,0A1.725,1.725,0,0,1-.727.135a1.8,1.8,0,0,1-.782-.146,1.028,1.028,0,0,1-.446-.411,1.985,1.985,0,0,1-.235-.726,7.387,7.387,0,0,1-.069-1.081,5.654,5.654,0,0,1,.108-1.192,2.1,2.1,0,0,1,.3-.75,1.088,1.088,0,0,1,.464-.389,1.637,1.637,0,0,1,.66-.126,1.8,1.8,0,0,1,1.082.275,1.245,1.245,0,0,1,.4.945c.008.287.012.56.012.815v.656c0,.225,0,.394.012.492A2.437,2.437,0,0,1,.7-.869a1.455,1.455,0,0,1-.251.518A1.2,1.2,0,0,1,0,0M2.342.185a5.6,5.6,0,0,1-.119-.817c-.027-.322-.046-.682-.058-1.1s-.018-.821-.018-1.249V-8.292H.758v3.207a1.786,1.786,0,0,0-.317-.229A2.36,2.36,0,0,0-.727-5.561,4.913,4.913,0,0,0-1.95-5.42a2.122,2.122,0,0,0-.965.531,2.435,2.435,0,0,0-.6,1.042,5.52,5.52,0,0,0-.2,1.619A6.009,6.009,0,0,0-3.573-.815,2.394,2.394,0,0,0-3.065.21,2.138,2.138,0,0,0-2.12.818a4.417,4.417,0,0,0,1.393.191A2.244,2.244,0,0,0,.437.7,1.636,1.636,0,0,0,.992.145a1.574,1.574,0,0,0,.357.683L1.4.88H2.814L2.506.574A.819.819,0,0,1,2.342.185" fill="#fff"/></g><g transform="translate(269.436 -389.081)"><path d="M0,0-1.568,4.5-3.06,0H-4.614L-2.15,6.149-3.207,9.184h1.292L1.487,0Z" fill="#fff"/></g><g transform="translate(181.043 -387)"><path d="M0,0A3.134,3.134,0,0,0-3.338,2.868,3.134,3.134,0,0,0,0,5.737V4.73A2.139,2.139,0,0,1-2.332,2.868,2.139,2.139,0,0,1,0,1.007V1c.073,0,.144.011.218.011V0C.144,0,.073-.006,0-.011Z" fill="#fff"/></g><g transform="translate(185.026 -386.012)"><path d="M0,0H1.607A2.139,2.139,0,0,1,3.939,1.862,2.139,2.139,0,0,1,1.607,3.723H0ZM-1.007,4.73H1.607A3.134,3.134,0,0,0,4.946,1.862,3.134,3.134,0,0,0,1.607-1.007H-1.007Z" fill="#fff"/></g><g transform="translate(185.026 -392.115)"><path d="M0,0H1.389A1.969,1.969,0,0,1,3.447,1.861,1.969,1.969,0,0,1,1.389,3.723H0ZM4.454,1.861A2.974,2.974,0,0,0,1.389-1.007h-2.4V4.73h2.4A2.975,2.975,0,0,0,4.454,1.861" fill="#fff"/></g></g></svg>